<svg xmlns="http://www.w3.org/2000/svg" width="55.078" height="54.246" viewBox="0 0 55.078 54.246">
  <path id="icon-01" d="M28.05.595,28.066.6l.015.005L53.425,8.88A1.757,1.757,0,0,1,54.578,10.5v33.2a1.675,1.675,0,0,1-1.125,1.613h0l-.013,0L28.08,53.688h0a2.393,2.393,0,0,1-1.078,0h0L1.653,45.414A1.757,1.757,0,0,1,.5,43.792V10.5A1.675,1.675,0,0,1,1.625,8.889h0l.011,0L27,.606h0A1.425,1.425,0,0,1,28.05.595ZM25.2,49.583l.076.025h.667V19.985l-.346-.112-8.366-2.7-.654-.211v15.5a1.679,1.679,0,1,1-3.357,0V15.8l-.346-.112-8.366-2.7-.654-.211V42.586L4.2,42.7ZM27.385,16.99l.155.05.155-.05,18.388-6.013,1.453-.475-1.453-.475L27.694,4.013l-.155-.051-.156.051L9,10.026l-1.45.474,1.45.476,5.839,1.917.165.054.163-.059,9.312-3.394a1.738,1.738,0,0,1,2.163,1.012,1.664,1.664,0,0,1-1.014,2.14l-4.177,1.479-1.391.493,1.4.454ZM50.874,42.7l.346-.112V12.774l-.656.215-21,6.885-.344.113V49.8l.654-.211,8.366-2.7.346-.112V35.513a1.587,1.587,0,0,1,1.592-1.679,1.658,1.658,0,0,1,1.679,1.679v10.1l.654-.211Z" transform="translate(0 -0.004)" fill="#0f2421" stroke="#fff" stroke-width="1"/>
</svg>
