<svg xmlns="http://www.w3.org/2000/svg" width="62" height="62" viewBox="0 0 62 62">
  <path id="icon-03" d="M55.111,27.693V24.111a24.111,24.111,0,0,0-48.222,0v3.582a8.241,8.241,0,0,0,0,16.258v.138a4.822,4.822,0,0,0,9.644,0V27.556a4.793,4.793,0,0,0-4.822-4.822,4.16,4.16,0,0,0-2.067.482,21.375,21.375,0,0,1,42.711,0,5.062,5.062,0,0,0-2.067-.482,4.793,4.793,0,0,0-4.822,4.822V44.089a4.822,4.822,0,0,0,9.644,0v-.138a8.309,8.309,0,0,0,4.133-2v.758a12.436,12.436,0,0,1-12.4,12.4H41.816a5.511,5.511,0,1,0,0,2.756h5.029A15.2,15.2,0,0,0,62,42.711V35.822A8.226,8.226,0,0,0,55.111,27.693ZM6.889,41.127a5.538,5.538,0,0,1-4.133-5.3,5.477,5.477,0,0,1,4.133-5.3Zm4.822-15.638a2.03,2.03,0,0,1,2.067,2.067V44.089a2.067,2.067,0,1,1-4.133,0V27.556A2.03,2.03,0,0,1,11.711,25.489Zm40.644,18.6a2.067,2.067,0,1,1-4.133,0V27.556a2.067,2.067,0,0,1,4.133,0ZM36.511,59.244a2.756,2.756,0,1,1,2.756-2.756A2.764,2.764,0,0,1,36.511,59.244Zm18.6-18.118V30.518a5.47,5.47,0,0,1,0,10.609Zm-22.94-1.1,2.342-3.513H37.2a4.145,4.145,0,0,0,4.133-4.133V24.111A4.145,4.145,0,0,0,37.2,19.978H24.8a4.145,4.145,0,0,0-4.133,4.133v8.267A4.145,4.145,0,0,0,24.8,36.511h2.687l2.342,3.513a1.416,1.416,0,0,0,2.342,0Zm-2.756-5.649a1.353,1.353,0,0,0-1.171-.62H24.8a1.382,1.382,0,0,1-1.378-1.378V24.111A1.382,1.382,0,0,1,24.8,22.733H37.2a1.382,1.382,0,0,1,1.378,1.378v8.267A1.382,1.382,0,0,1,37.2,33.756H33.756a1.353,1.353,0,0,0-1.171.62L31,36.787Zm4.34-4.753H28.244a1.378,1.378,0,0,1,0-2.756h5.511a1.378,1.378,0,0,1,0,2.756Z" fill="#0f2421"/>
</svg>
