<svg xmlns="http://www.w3.org/2000/svg" width="54.105" height="54" viewBox="0 0 54.105 54">
  <path id="icon-02" d="M53.252,48.185H50.843V21.932a4.562,4.562,0,0,0,3.24-4.4V13.957a.736.736,0,0,0-.332-.831L46.274,5.068V3.323A3.333,3.333,0,0,0,42.951,0H11.132A3.333,3.333,0,0,0,7.809,3.323V5.068C-.332,13.874.166,13.292.083,13.458A1.886,1.886,0,0,1,0,13.791v3.738a4.562,4.562,0,0,0,3.24,4.4V48.185H.914a.785.785,0,0,0-.831.831v4.154A.785.785,0,0,0,.914,54H53.252a.785.785,0,0,0,.831-.831V49.015A.833.833,0,0,0,53.252,48.185Zm-4.9-28c-2.243-1-1.662-3.489-1.745-5.566h5.815v2.908A2.917,2.917,0,0,1,48.351,20.188Zm-6.314.249a2.944,2.944,0,0,1-2.908-2.908V14.622h5.815v2.908A2.89,2.89,0,0,1,42.037,20.437Zm-7.477,0a2.943,2.943,0,0,1-2.908-2.908V14.622h5.815v2.908A2.943,2.943,0,0,1,34.56,20.437Zm-7.477,0a2.943,2.943,0,0,1-2.908-2.908V14.622h5.815v2.908A2.89,2.89,0,0,1,27.083,20.437Zm-7.477,0A2.943,2.943,0,0,1,16.7,17.529V14.622h5.815v2.908A2.89,2.89,0,0,1,19.606,20.437Zm-7.477,0a2.944,2.944,0,0,1-2.908-2.908V14.622h5.815v2.908A2.943,2.943,0,0,1,12.129,20.437ZM9.055,6.231h3.323l-4.4,6.729H2.825ZM51.341,12.96H46.191l-4.4-6.729h3.323ZM39.794,6.231,44.28,12.96h-5.4L36.222,6.231Zm-5.4,0,2.659,6.729H31.569l-.748-5.732-.166-1Zm-5.4,0,.914,6.729H24.341l.831-6.729ZM22.6,12.96H17.114l2.659-6.729h3.738Zm-7.311,0h-5.4l4.486-6.729h3.572ZM9.554,3.323a1.666,1.666,0,0,1,1.662-1.662H43.034A1.666,1.666,0,0,1,44.7,3.323V4.569H9.554ZM1.745,17.529V14.622H7.56v2.908a2.943,2.943,0,0,1-2.908,2.908H4.569A2.873,2.873,0,0,1,1.745,17.529ZM4.985,22.1a4.775,4.775,0,0,0,3.406-1.911A4.243,4.243,0,0,0,12.129,22.1a4.641,4.641,0,0,0,3.738-1.911A4.592,4.592,0,0,0,19.523,22.1h.083a4.641,4.641,0,0,0,3.738-1.911A4.592,4.592,0,0,0,27,22.1h.083a4.753,4.753,0,0,0,3.738-1.911A4.374,4.374,0,0,0,34.477,22.1h.083A4.641,4.641,0,0,0,38.3,20.188,4.487,4.487,0,0,0,41.954,22.1h.083a4.641,4.641,0,0,0,3.738-1.911A4.509,4.509,0,0,0,49.181,22.1V48.185H45.859V27.332a.785.785,0,0,0-.831-.831H32.483a.785.785,0,0,0-.831.831V48.185H4.985ZM33.314,38.963H34.56a.831.831,0,0,0,0-1.662H33.314V28.163H44.2V48.185H33.314ZM52.422,52.339H1.745V49.846H52.422Z" fill="#0f2421"/>
</svg>
