<svg xmlns="http://www.w3.org/2000/svg" width="19" height="13" viewBox="0 0 19 13">
  <path id="white-arrow" d="M12.789.235a.673.673,0,0,0-.219-.167.7.7,0,0,0-.545-.024.679.679,0,0,0-.233.147.654.654,0,0,0-.152.226.637.637,0,0,0,.025.528.659.659,0,0,0,.173.212l4.856,4.711H.642a.687.687,0,0,0-.456.2.642.642,0,0,0,0,.9.687.687,0,0,0,.456.2H16.694L11.83,11.886a.653.653,0,0,0,0,.922.675.675,0,0,0,.218.142.691.691,0,0,0,.515,0,.674.674,0,0,0,.218-.142L18.8,6.979a.639.639,0,0,0,.15-.211.622.622,0,0,0,0-.5.639.639,0,0,0-.15-.211Z" fill="#fff"/>
</svg>
